<svg width="83" height="49" viewBox="0 0 83 49" fill="none" xmlns="http://www.w3.org/2000/svg">
<path d="M56.5356 34.6442C56.3657 34.2332 42.2551 6.48086 42.0268 6.10142C41.2836 4.33594 39.9829 2.78126 38.1885 1.74305C33.8035 -0.807673 28.1709 0.652142 25.6015 5.00524C23.839 7.98811 23.977 11.5612 25.6546 14.3333C25.8245 14.7444 39.3299 41.3056 39.5582 41.6903C39.7281 42.1014 39.9298 42.4967 40.1634 42.8814C40.9066 44.6469 42.2073 46.2015 44.0016 47.245C48.3867 49.7957 54.0193 48.3359 56.5887 43.9828C58.3512 41 58.2132 37.4268 56.5356 34.6548V34.6442Z" fill="url(#paint0_linear_3_2742)"/>
<path d="M40.243 15.8615C41.7879 14.2278 42.7328 12.0302 42.7328 9.61647C42.7381 4.57299 38.6185 0.483398 33.5381 0.483398C30.4112 0.483398 27.6559 2.03281 25.989 4.39381C25.6864 4.71528 2.77911 32.7416 2.52429 33.1C0.979444 34.7337 0.0344849 36.9314 0.0344849 39.3451C0.0344849 44.3885 4.15408 48.4781 9.23456 48.4781C12.3614 48.4781 15.1167 46.9287 16.7783 44.5677C17.0809 44.2462 39.9882 16.2199 40.243 15.8615Z" fill="url(#paint1_linear_3_2742)"/>
<path d="M79.6659 15.8615C81.2107 14.2278 82.1557 12.0302 82.1557 9.61647C82.1557 4.57299 78.0361 0.483398 72.9556 0.483398C69.8288 0.483398 67.0735 2.03281 65.4066 4.39381C65.104 4.71528 42.1967 32.7416 41.9419 33.1C40.397 34.7337 39.4521 36.9314 39.4521 39.3451C39.4521 44.3885 43.5717 48.4781 48.6521 48.4781C51.779 48.4781 54.5342 46.9287 56.1959 44.5677C56.4985 44.2462 79.4058 16.2199 79.6606 15.8615H79.6659Z" fill="url(#paint2_linear_3_2742)"/>
<defs>
<linearGradient id="paint0_linear_3_2742" x1="15.309" y1="-27.7026" x2="76.4171" y2="28.2122" gradientUnits="userSpaceOnUse">
<stop stop-color="#7756DB"/>
<stop offset="0.760417" stop-color="#3BF4DE"/>
</linearGradient>
<linearGradient id="paint1_linear_3_2742" x1="-11.4669" y1="-27.6966" x2="49.1425" y2="42.9816" gradientUnits="userSpaceOnUse">
<stop stop-color="#7756DB"/>
<stop offset="0.760417" stop-color="#3BF4DE"/>
</linearGradient>
<linearGradient id="paint2_linear_3_2742" x1="27.9493" y1="-27.6966" x2="88.5575" y2="42.989" gradientUnits="userSpaceOnUse">
<stop stop-color="#7756DB"/>
<stop offset="0.760417" stop-color="#3BF4DE"/>
</linearGradient>
</defs>
</svg>
