<svg width="83" height="49" viewBox="0 0 83 49" fill="none" xmlns="http://www.w3.org/2000/svg">
<path d="M56.5011 34.1608C56.3312 33.7498 42.2205 5.99746 41.9923 5.61802C41.249 3.85254 39.9484 2.29786 38.154 1.25965C33.769 -1.29107 28.1364 0.168744 25.567 4.52184C23.8045 7.50471 23.9425 11.0778 25.6201 13.8499C25.7899 14.261 39.2954 40.8222 39.5237 41.2069C39.6936 41.618 39.8953 42.0133 40.1289 42.398C40.8721 44.1635 42.1728 45.7181 43.9671 46.7616C48.3522 49.3123 53.9847 47.8525 56.5542 43.4994C58.3167 40.5166 58.1787 36.9434 56.5011 34.1714V34.1608Z" fill="url(#paint0_linear_3_2424)"/>
<path d="M40.2085 15.3781C41.7534 13.7444 42.6983 11.5468 42.6983 9.13307C42.7036 4.08959 38.584 0 33.5036 0C30.3767 0 27.6215 1.54941 25.9545 3.91041C25.6519 4.23188 2.74463 32.2582 2.48981 32.6166C0.944959 34.2503 0 36.448 0 38.8617C0 43.9051 4.1196 47.9947 9.20008 47.9947C12.3269 47.9947 15.0822 46.4453 16.7438 44.0843C17.0464 43.7628 39.9537 15.7365 40.2085 15.3781Z" fill="url(#paint1_linear_3_2424)"/>
<path d="M79.6314 15.3781C81.1763 13.7444 82.1212 11.5468 82.1212 9.13307C82.1212 4.08959 78.0016 0 72.9212 0C69.7943 0 67.0391 1.54941 65.3721 3.91041C65.0695 4.23188 42.1622 32.2582 41.9074 32.6166C40.3626 34.2503 39.4176 36.448 39.4176 38.8617C39.4176 43.9051 43.5372 47.9947 48.6177 47.9947C51.7445 47.9947 54.4998 46.4453 56.1614 44.0843C56.464 43.7628 79.3713 15.7365 79.6261 15.3781H79.6314Z" fill="url(#paint2_linear_3_2424)"/>
<defs>
<linearGradient id="paint0_linear_3_2424" x1="15.2745" y1="-28.186" x2="76.3825" y2="27.7288" gradientUnits="userSpaceOnUse">
<stop stop-color="#7756DB"/>
<stop offset="0.760417" stop-color="#3BF4DE"/>
</linearGradient>
<linearGradient id="paint1_linear_3_2424" x1="-11.5013" y1="-28.18" x2="49.108" y2="42.4982" gradientUnits="userSpaceOnUse">
<stop stop-color="#7756DB"/>
<stop offset="0.760417" stop-color="#3BF4DE"/>
</linearGradient>
<linearGradient id="paint2_linear_3_2424" x1="27.9148" y1="-28.18" x2="88.523" y2="42.5056" gradientUnits="userSpaceOnUse">
<stop stop-color="#7756DB"/>
<stop offset="0.760417" stop-color="#3BF4DE"/>
</linearGradient>
</defs>
</svg>
